<svg xmlns="http://www.w3.org/2000/svg" viewBox="0 0 430 300"><g><path d="M162.84 173.1l-20.44-44.23h-.4L85 256.06l-15.21 33.8c-2.3925239 6.306456-8.539434 10.385623-15.28 10.14H8c-6.34 0-9.72-5.49-7.18-11L133.1 4.65c1.394924-2.71762396 4.129547-4.48865411 7.18-4.65h4.23c3.052421.15527096 5.789814 1.92809552 7.18 4.65l44.78 96.13-33.63 72.32zM146.05 289L278.31 4.65c1.39335-2.71904706 4.128893-4.49067281 7.18-4.65h4.22c3.054753.15584159 5.794882 1.92796974 7.19 4.65L429.15 289c2.54 5.5-.84 11-7.18 11h-46.9c-7.61 0-11-2.53-14.79-10.57l-15.21-33.37H230.14l-15.21 33.8c-2.385384 6.285-8.501138 10.35949-15.22 10.14h-46.47c-6.34 0-9.72-5.49-7.19-11zm173.67-90.42l-32.11-69.72h-.43l-31.69 69.72h64.23z"/></g></svg>